<svg width="19" height="19" viewBox="0 0 19 19" fill="none" xmlns="http://www.w3.org/2000/svg">
<path fill-rule="evenodd" clip-rule="evenodd" d="M9.45185 18.2292C4.10992 18.2292 0.819593 14.4697 0.819593 9.69529C0.796792 7.16294 1.80294 4.72982 3.60761 2.95319C5.41227 1.17655 7.86084 0.208601 10.3925 0.271032C15.2653 0.271032 18.9017 3.26406 18.9017 7.98897C18.9017 12.2927 16.6263 13.9998 14.3502 13.9998C13.3737 14.0509 12.4465 13.5676 11.9293 12.7379C11.102 13.5077 10.0167 13.9401 8.88669 13.9503C6.1654 13.9503 4.78346 12.021 4.78346 9.69219C4.73716 8.25026 5.28604 6.85276 6.30125 5.82773C7.31646 4.80271 8.70862 4.24041 10.1509 4.27284C10.946 4.24791 11.7275 4.48244 12.3775 4.94097L12.4766 4.52058H14.8263L13.665 9.96239C13.442 11.0509 13.6898 11.9164 14.7535 11.9164C16.0642 11.9164 16.8315 10.8279 16.8315 7.934C16.8315 4.07542 13.7889 2.26922 10.3755 2.26922C8.39089 2.19814 6.46674 2.95881 5.06725 4.36772C3.66775 5.77662 2.91999 7.70581 3.00437 9.68987C3.00437 13.598 5.50269 16.1459 9.46037 16.1459C10.9713 16.1574 12.4634 15.8098 13.8137 15.1317L14.6297 17.1353C12.9924 17.8366 11.2329 18.2083 9.45185 18.2292ZM9.27843 11.6246C9.94972 11.6505 10.6023 11.4001 11.0839 10.9317L11.8751 7.27049C11.4248 6.81805 10.8101 6.56795 10.1719 6.57759C9.40449 6.57048 8.66793 6.87903 8.13475 7.43095C7.60157 7.98287 7.31864 8.72964 7.35224 9.4963C7.34992 10.7838 7.9685 11.6246 9.27921 11.6246H9.27843Z" fill="#C1C7D0"/>
</svg>
