<svg width="24" height="24" viewBox="0 0 24 24" fill="none" xmlns="http://www.w3.org/2000/svg">
<circle r="12" transform="matrix(0 -1 -1 0 12 12)" fill="#112143" fill-opacity="0.48"/>
<circle r="11.5" transform="matrix(0 -1 -1 0 12 12)" stroke="#787878" stroke-opacity="0.5"/>
<path d="M12.3536 8.64645C12.1583 8.45118 11.8417 8.45118 11.6464 8.64645L8.46447 11.8284C8.2692 12.0237 8.2692 12.3403 8.46447 12.5355C8.65973 12.7308 8.97631 12.7308 9.17157 12.5355L12 9.70711L14.8284 12.5355C15.0237 12.7308 15.3403 12.7308 15.5355 12.5355C15.7308 12.3403 15.7308 12.0237 15.5355 11.8284L12.3536 8.64645ZM12.5 15L12.5 9L11.5 9L11.5 15L12.5 15Z" fill="white"/>
</svg>
