<svg width="28" height="27" viewBox="0 0 28 27" fill="none" xmlns="http://www.w3.org/2000/svg">
<g clip-path="url(#clip0_520_7289)">
<path d="M4.03531 23.8455H20.0767L19.3106 21.3649L21.1432 22.9376L22.8228 24.4429L25.8828 27V2.78438C25.8063 1.27912 24.5103 0 22.9038 0L4.04094 0.003375C2.43556 0.003375 1.13281 1.28475 1.13281 2.79V21.06C1.13281 22.6474 2.43331 23.8455 4.03531 23.8455ZM15.9018 6.39338L15.8647 6.40688L15.8782 6.39338H15.9018ZM7.31694 7.821C9.37906 6.32025 11.2904 6.39225 11.2904 6.39225L11.4446 6.54413C8.92119 7.146 7.77706 8.27325 7.77706 8.27325C7.77706 8.27325 8.08306 8.12363 8.61744 7.89525C12.0161 6.55875 15.7274 6.6555 19.1632 8.3475C19.1632 8.3475 18.0168 7.29338 15.6487 6.61838L15.8579 6.4125C16.1853 6.41363 17.9178 6.47438 19.7718 7.83C19.7718 7.83 21.8463 11.3738 21.8463 15.7275C21.7777 15.6443 20.5593 17.6018 17.4239 17.6693C17.4239 17.6693 16.8929 17.0685 16.5149 16.5443C18.3487 16.0178 19.0349 14.9648 19.0349 14.9648C18.4331 15.3439 17.8841 15.5689 17.4386 15.7939C16.7534 16.0954 16.0672 16.2439 15.3821 16.3958C12.1376 16.9223 10.3162 16.0414 8.59494 15.3428L8.00656 15.0435C8.00656 15.0435 8.69169 16.0965 10.4523 16.623C9.98994 17.1506 9.53206 17.7503 9.53206 17.7503C6.39781 17.676 5.25481 15.7185 5.25481 15.7185C5.25481 11.358 7.31694 7.821 7.31694 7.821Z" fill="#5A6781"/>
<path d="M16.1036 14.3678C16.9035 14.3678 17.5548 13.6928 17.5548 12.8603C17.5548 12.0334 16.9068 11.3584 16.1036 11.3584V11.3618C15.3071 11.3618 14.6546 12.0345 14.6523 12.867C14.6523 13.6928 15.3037 14.3678 16.1036 14.3678Z" fill="#5A6781"/>
<path d="M10.9083 14.3678C11.7082 14.3678 12.3595 13.6928 12.3595 12.8603C12.3595 12.0334 11.7127 11.3584 10.9128 11.3584L10.9083 11.3618C10.1084 11.3618 9.45703 12.0345 9.45703 12.867C9.45703 13.6928 10.1084 14.3678 10.9083 14.3678Z" fill="#5A6781"/>
</g>
<defs>
<clipPath id="clip0_520_7289">
<rect width="27" height="27" fill="white" transform="translate(0.0078125)"/>
</clipPath>
</defs>
</svg>
