<svg width="21" height="5" viewBox="0 0 21 5" fill="none" xmlns="http://www.w3.org/2000/svg">
<path d="M0.40625 2.36956C0.40625 3.30665 1.17296 4.07336 2.11005 4.07336C3.04715 4.07336 3.81386 3.30665 3.81386 2.36956C3.81386 1.43247 3.04715 0.665756 2.11005 0.665756C1.17296 0.665756 0.40625 1.43247 0.40625 2.36956ZM17.4443 2.36956C17.4443 3.30665 18.211 4.07336 19.1481 4.07336C20.0852 4.07336 20.8519 3.30665 20.8519 2.36956C20.8519 1.43247 20.0852 0.665756 19.1481 0.665756C18.211 0.665756 17.4443 1.43247 17.4443 2.36956ZM8.92527 2.36956C8.92527 3.30665 9.69198 4.07336 10.6291 4.07336C11.5662 4.07336 12.3329 3.30665 12.3329 2.36956C12.3329 1.43247 11.5662 0.665756 10.6291 0.665756C9.69198 0.665756 8.92527 1.43247 8.92527 2.36956Z" fill="white"/>
</svg>
