<svg width="18" height="17" viewBox="0 0 18 17" fill="none" xmlns="http://www.w3.org/2000/svg">
<path d="M3.35096 4.94315L2.82063 5.47348L3.35096 4.94315ZM1.80781 3.4L2.33814 2.86967L2.32382 2.85535L2.30875 2.84182L1.80781 3.4ZM16.2078 3.4L16.7381 3.93033L16.2078 3.4ZM14.6647 4.94315L15.195 5.47348L14.6647 4.94315ZM2.65667 14.6361L3.09751 14.0293L2.65667 14.6361ZM1.77174 13.7511L2.37851 13.3103L1.77174 13.7511ZM16.2439 13.7511L15.6371 13.3103L16.2439 13.7511ZM15.359 14.6361L14.9181 14.0293L15.359 14.6361ZM15.359 1.76393L14.9181 2.37069L15.359 1.76393ZM16.2439 2.64886L15.6371 3.0897L16.2439 2.64886ZM2.65667 1.76393L3.09751 2.37069L2.65667 1.76393ZM1.77174 2.64886L1.16498 2.20802L1.77174 2.64886ZM1.49425 3.11859L0.816074 2.79832H0.816074L1.49425 3.11859ZM16.511 3.09682L17.1866 2.77125L16.511 3.09682ZM3.88129 4.41282L2.33814 2.86967L1.27748 3.93033L2.82063 5.47348L3.88129 4.41282ZM15.6775 2.86967L14.1343 4.41282L15.195 5.47348L16.7381 3.93033L15.6775 2.86967ZM2.82063 5.47348C4.13897 6.79182 5.17995 7.83505 6.10313 8.53941C7.04362 9.25698 7.94947 9.69315 9.00781 9.69315V8.19315C8.4093 8.19315 7.82006 7.96264 7.013 7.34688C6.18863 6.71791 5.22961 5.76114 3.88129 4.41282L2.82063 5.47348ZM14.1343 4.41282C12.786 5.76114 11.827 6.71791 11.0026 7.34688C10.1956 7.96264 9.60632 8.19315 9.00781 8.19315V9.69315C10.0662 9.69315 10.972 9.25698 11.9125 8.53941C12.8357 7.83505 13.8767 6.79182 15.195 5.47348L14.1343 4.41282ZM8.20781 1.75H9.80781V0.25H8.20781V1.75ZM9.80781 14.65H8.20781V16.15H9.80781V14.65ZM8.20781 14.65C6.69121 14.65 5.61401 14.649 4.78241 14.5589C3.96484 14.4703 3.47408 14.3029 3.09751 14.0293L2.21583 15.2428C2.89072 15.7332 3.67564 15.9477 4.62084 16.0501C5.55199 16.151 6.72463 16.15 8.20781 16.15V14.65ZM0.257812 8.2C0.257812 9.68319 0.256783 10.8558 0.357667 11.787C0.460073 12.7322 0.674645 13.5171 1.16498 14.192L2.37851 13.3103C2.10491 12.9337 1.93752 12.443 1.84894 11.6254C1.75884 10.7938 1.75781 9.7166 1.75781 8.2H0.257812ZM3.09751 14.0293C2.8216 13.8288 2.57897 13.5862 2.37851 13.3103L1.16498 14.192C1.45796 14.5952 1.81258 14.9499 2.21583 15.2428L3.09751 14.0293ZM16.2578 8.2C16.2578 9.7166 16.2568 10.7938 16.1667 11.6254C16.0781 12.443 15.9107 12.9337 15.6371 13.3103L16.8506 14.192C17.341 13.5171 17.5556 12.7322 17.658 11.787C17.7588 10.8558 17.7578 9.68319 17.7578 8.2H16.2578ZM9.80781 16.15C11.291 16.15 12.4636 16.151 13.3948 16.0501C14.34 15.9477 15.1249 15.7332 15.7998 15.2428L14.9181 14.0293C14.5415 14.3029 14.0508 14.4703 13.2332 14.5589C12.4016 14.649 11.3244 14.65 9.80781 14.65V16.15ZM15.6371 13.3103C15.4367 13.5862 15.194 13.8288 14.9181 14.0293L15.7998 15.2428C16.203 14.9499 16.5577 14.5952 16.8506 14.192L15.6371 13.3103ZM9.80781 1.75C11.3244 1.75 12.4016 1.75103 13.2332 1.84113C14.0508 1.92971 14.5415 2.0971 14.9181 2.37069L15.7998 1.15717C15.1249 0.666832 14.34 0.45226 13.3948 0.349855C12.4636 0.248971 11.291 0.25 9.80781 0.25V1.75ZM14.9181 2.37069C15.194 2.57115 15.4367 2.81379 15.6371 3.0897L16.8506 2.20802C16.5577 1.80477 16.203 1.45015 15.7998 1.15717L14.9181 2.37069ZM8.20781 0.25C6.72463 0.25 5.55199 0.248971 4.62084 0.349855C3.67564 0.45226 2.89072 0.666832 2.21583 1.15717L3.09751 2.37069C3.47408 2.0971 3.96484 1.92971 4.78241 1.84113C5.61401 1.75103 6.69121 1.75 8.20781 1.75V0.25ZM2.21583 1.15717C1.81258 1.45015 1.45796 1.80477 1.16498 2.20802L2.37851 3.0897C2.57897 2.81379 2.8216 2.57115 3.09751 2.37069L2.21583 1.15717ZM1.75781 8.2C1.75781 6.89904 1.75828 5.91825 1.81656 5.1333C1.87472 4.34985 1.98697 3.83157 2.17243 3.43887L0.816074 2.79832C0.515091 3.43564 0.38412 4.16768 0.320676 5.02224C0.257343 5.8753 0.257812 6.9202 0.257812 8.2H1.75781ZM2.17243 3.43887C2.23199 3.31274 2.30009 3.19763 2.37851 3.0897L1.16498 2.20802C1.02998 2.39384 0.914469 2.58997 0.816074 2.79832L2.17243 3.43887ZM2.30875 2.84182L1.99519 2.56042L0.993315 3.67677L1.30688 3.95818L2.30875 2.84182ZM17.7578 8.2C17.7578 6.9113 17.7583 5.86063 17.6936 5.00393C17.6287 4.14546 17.4948 3.4107 17.1866 2.77125L15.8353 3.42239C16.024 3.81401 16.1385 4.33133 16.1978 5.11693C16.2573 5.90431 16.2578 6.8897 16.2578 8.2H17.7578ZM17.1866 2.77125C17.0911 2.57288 16.9797 2.3857 16.8506 2.20802L15.6371 3.0897C15.7122 3.19298 15.7777 3.30277 15.8353 3.42239L17.1866 2.77125ZM16.7381 3.93033L17.0413 3.62715L15.9807 2.56649L15.6775 2.86967L16.7381 3.93033Z" fill="#5A6781"/>
</svg>
