<svg width="25" height="25" viewBox="0 0 25 25" fill="none" xmlns="http://www.w3.org/2000/svg">
<g clip-path="url(#clip0_520_7297)">
<path d="M23.9873 7.05901C23.931 5.78326 23.7247 4.9062 23.4292 4.14621C23.1243 3.33951 22.6553 2.61726 22.0408 2.01686C21.4404 1.40711 20.7134 0.93331 19.916 0.6332C19.1516 0.33767 18.2791 0.131367 17.0034 0.0751192C15.7181 0.0141077 15.3101 0 12.0503 0C8.7905 0 8.38247 0.0141077 7.10197 0.0703555C5.82622 0.126603 4.94916 0.33309 4.18936 0.628436C3.38247 0.93331 2.66023 1.40235 2.05982 2.01686C1.45008 2.61726 0.976461 3.34427 0.676168 4.14163C0.380638 4.9062 0.174336 5.7785 0.118088 7.05424C0.0570765 8.33951 0.0429688 8.74754 0.0429688 12.0073C0.0429688 15.2672 0.0570765 15.6752 0.113324 16.9557C0.169572 18.2314 0.376058 19.1085 0.671587 19.8685C0.976461 20.6752 1.45008 21.3974 2.05982 21.9978C2.66023 22.6076 3.38723 23.0814 4.1846 23.3815C4.94916 23.677 5.82146 23.8833 7.09738 23.9396C8.37771 23.996 8.78592 24.0099 12.0457 24.0099C15.3055 24.0099 15.7135 23.996 16.9941 23.9396C18.2698 23.8833 19.1469 23.677 19.9067 23.3815C21.5203 22.7576 22.796 21.4819 23.4198 19.8685C23.7152 19.1039 23.9217 18.2314 23.9779 16.9557C24.0342 15.6752 24.0483 15.2672 24.0483 12.0073C24.0483 8.74754 24.0435 8.33951 23.9873 7.05901ZM21.8251 16.8619C21.7735 18.0345 21.5765 18.6677 21.4123 19.0898C21.0089 20.1358 20.1787 20.966 19.1327 21.3694C18.7106 21.5336 18.0728 21.7305 16.9048 21.782C15.6384 21.8384 15.2586 21.8524 12.0551 21.8524C8.85151 21.8524 8.46693 21.8384 7.20512 21.782C6.03253 21.7305 5.39933 21.5336 4.97719 21.3694C4.45667 21.177 3.98287 20.8721 3.5983 20.4735C3.19962 20.0841 2.89475 19.6151 2.70237 19.0946C2.53821 18.6724 2.34125 18.0345 2.28976 16.8666C2.23333 15.6002 2.21941 15.2202 2.21941 12.0167C2.21941 8.81313 2.23333 8.42856 2.28976 7.16692C2.34125 5.99433 2.53821 5.36113 2.70237 4.939C2.89475 4.41829 3.19962 3.94467 3.60306 3.55992C3.99222 3.16124 4.46125 2.85636 4.98196 2.66417C5.40409 2.5 6.04205 2.30304 7.20988 2.25138C8.47628 2.19513 8.85627 2.18102 12.0596 2.18102C15.268 2.18102 15.6478 2.19513 16.9096 2.25138C18.0822 2.30304 18.7154 2.5 19.1375 2.66417C19.658 2.85636 20.1318 3.16124 20.5164 3.55992C20.9151 3.94925 21.22 4.41829 21.4123 4.939C21.5765 5.36113 21.7735 5.99891 21.8251 7.16692C21.8814 8.43332 21.8955 8.81313 21.8955 12.0167C21.8955 15.2202 21.8814 15.5955 21.8251 16.8619Z" fill="#5A6781"/>
<path d="M12.0507 5.83936C8.64555 5.83936 5.88281 8.60191 5.88281 12.0072C5.88281 15.4125 8.64555 18.175 12.0507 18.175C15.4559 18.175 18.2185 15.4125 18.2185 12.0072C18.2185 8.60191 15.4559 5.83936 12.0507 5.83936ZM12.0507 16.0081C9.8416 16.0081 8.04973 14.2164 8.04973 12.0072C8.04973 9.79796 9.8416 8.00627 12.0507 8.00627C14.2599 8.00627 16.0516 9.79796 16.0516 12.0072C16.0516 14.2164 14.2599 16.0081 12.0507 16.0081Z" fill="#5A6781"/>
<path d="M19.8995 5.59518C19.8995 6.39035 19.2548 7.03509 18.4594 7.03509C17.6643 7.03509 17.0195 6.39035 17.0195 5.59518C17.0195 4.79983 17.6643 4.15527 18.4594 4.15527C19.2548 4.15527 19.8995 4.79983 19.8995 5.59518Z" fill="#5A6781"/>
</g>
<defs>
<clipPath id="clip0_520_7297">
<rect width="24.01" height="24.01" fill="white" transform="translate(0.00390625)"/>
</clipPath>
</defs>
</svg>
