<svg width="65" height="65" viewBox="0 0 65 65" fill="none" xmlns="http://www.w3.org/2000/svg">
<path d="M59.5846 32.5003C59.5846 47.458 47.459 59.5837 32.5013 59.5837C17.5436 59.5837 5.41797 47.458 5.41797 32.5003C5.41797 17.5426 17.5436 5.41699 32.5013 5.41699C47.459 5.41699 59.5846 17.5426 59.5846 32.5003ZM10.8346 32.5003C10.8346 44.4665 20.5351 54.167 32.5013 54.167C44.4675 54.167 54.168 44.4665 54.168 32.5003C54.168 20.5342 44.4675 10.8337 32.5013 10.8337C20.5351 10.8337 10.8346 20.5342 10.8346 32.5003Z" fill="#E5E9F2"/>
<path d="M32.5013 8.12468C32.5013 6.62891 33.7168 5.40232 35.2051 5.55165C37.8342 5.81544 40.4155 6.46307 42.8656 7.47794C46.1515 8.83901 49.1372 10.8339 51.6521 13.3489C54.167 15.8638 56.162 18.8494 57.523 22.1353C58.5379 24.5855 59.1855 27.1667 59.4493 29.7958C59.5987 31.2841 58.3721 32.4997 56.8763 32.4997V32.4997C55.3805 32.4997 54.1854 31.2825 53.9989 29.7984C53.758 27.8812 53.2612 26.0008 52.5187 24.2082C51.4298 21.5795 49.8339 19.191 47.8219 17.179C45.81 15.1671 43.4215 13.5711 40.7928 12.4823C39.0001 11.7398 37.1197 11.243 35.2026 11.0021C33.7185 10.8156 32.5013 9.62045 32.5013 8.12468V8.12468Z" fill="#3061A3"/>
</svg>
