<svg width="18" height="20" viewBox="0 0 18 20" fill="none" xmlns="http://www.w3.org/2000/svg">
<path fill-rule="evenodd" clip-rule="evenodd" d="M3.37775 7.87352V5.6242C3.37775 2.51804 5.89579 0 9.00195 0C12.1081 0 14.6262 2.51804 14.6261 5.6242V7.87352H15.7508C16.9931 7.87352 18.0001 8.88057 18.0001 10.1228V16.8717C18.0007 18.1129 16.9942 19.1204 15.7519 19.121L2.24944 19.121C1.00753 19.121 0.000625267 18.1145 0.00012207 16.8726V10.1237C0.000728866 8.88038 1.00827 7.87382 2.25054 7.87443L3.37775 7.87352ZM9.00195 2.24933C7.13654 2.24933 5.62432 3.76155 5.62432 5.62696V7.87627H12.3732V5.62422C12.3717 3.76143 10.8623 2.25142 8.99934 2.24933L9.00195 2.24933Z" fill="#C1C7D0"/>
</svg>
