<svg width="31" height="31" viewBox="0 0 31 31" fill="none" xmlns="http://www.w3.org/2000/svg">
<path d="M26.6712 3.45361L16.9922 10.6423L18.7821 6.40108L26.6712 3.45361Z" fill="#E2761B" stroke="#E2761B" stroke-width="0.0770594" stroke-linecap="round" stroke-linejoin="round"/>
<path d="M4.32812 3.45483L13.9293 10.7116L12.2269 6.4023L4.32812 3.45483Z" fill="#E4761B" stroke="#E4761B" stroke-width="0.0770594" stroke-linecap="round" stroke-linejoin="round"/>
<path d="M23.1993 20.1175L20.6211 24.0676L26.1376 25.5853L27.7234 20.2051L23.1993 20.1175Z" fill="#E4761B" stroke="#E4761B" stroke-width="0.0770594" stroke-linecap="round" stroke-linejoin="round"/>
<path d="M3.3125 20.2051L4.88863 25.5853L10.4051 24.0676L7.82685 20.1175L3.3125 20.2051Z" fill="#E4761B" stroke="#E4761B" stroke-width="0.0770594" stroke-linecap="round" stroke-linejoin="round"/>
<path d="M10.088 13.4455L8.55078 15.7708L14.0283 16.014L13.8337 10.1278L10.088 13.4455Z" fill="#E4761B" stroke="#E4761B" stroke-width="0.0770594" stroke-linecap="round" stroke-linejoin="round"/>
<path d="M20.9209 13.4458L17.1265 10.06L17 16.0143L22.4678 15.771L20.9209 13.4458Z" fill="#E4761B" stroke="#E4761B" stroke-width="0.0770594" stroke-linecap="round" stroke-linejoin="round"/>
<path d="M10.3945 24.0681L13.683 22.4628L10.8421 20.2445L10.3945 24.0681Z" fill="#E4761B" stroke="#E4761B" stroke-width="0.0770594" stroke-linecap="round" stroke-linejoin="round"/>
<path d="M17.3281 22.4628L20.6263 24.0681L20.1691 20.2445L17.3281 22.4628Z" fill="#E4761B" stroke="#E4761B" stroke-width="0.0770594" stroke-linecap="round" stroke-linejoin="round"/>
<path d="M20.6146 24.0675L17.3164 22.4622L17.5791 24.6124L17.5499 25.5172L20.6146 24.0675Z" fill="#D7C1B3" stroke="#D7C1B3" stroke-width="0.0770594" stroke-linecap="round" stroke-linejoin="round"/>
<path d="M10.4141 24.0675L13.4788 25.5172L13.4593 24.6124L13.7025 22.4622L10.4141 24.0675Z" fill="#D7C1B3" stroke="#D7C1B3" stroke-width="0.0770594" stroke-linecap="round" stroke-linejoin="round"/>
<path d="M13.5132 18.8234L10.7695 18.0159L12.7056 17.1305L13.5132 18.8234Z" fill="#233447" stroke="#233447" stroke-width="0.0770594" stroke-linecap="round" stroke-linejoin="round"/>
<path d="M17.4766 18.8234L18.2841 17.1305L20.2299 18.0159L17.4766 18.8234Z" fill="#233447" stroke="#233447" stroke-width="0.0770594" stroke-linecap="round" stroke-linejoin="round"/>
<path d="M10.3907 24.0681L10.8577 20.118L7.8125 20.2056L10.3907 24.0681Z" fill="#CD6116" stroke="#CD6116" stroke-width="0.0770594" stroke-linecap="round" stroke-linejoin="round"/>
<path d="M20.1289 20.1181L20.5959 24.0682L23.1741 20.2057L20.1289 20.1181Z" fill="#CD6116" stroke="#CD6116" stroke-width="0.0770594" stroke-linecap="round" stroke-linejoin="round"/>
<path d="M22.4639 15.7689L16.9961 16.0122L17.502 18.8239L18.3095 17.131L20.2554 18.0164L22.4639 15.7689Z" fill="#CD6116" stroke="#CD6116" stroke-width="0.0770594" stroke-linecap="round" stroke-linejoin="round"/>
<path d="M10.7612 18.0164L12.7071 17.131L13.5049 18.8239L14.0205 16.0122L8.54297 15.7689L10.7612 18.0164Z" fill="#CD6116" stroke="#CD6116" stroke-width="0.0770594" stroke-linecap="round" stroke-linejoin="round"/>
<path d="M8.51953 15.7689L10.8156 20.2444L10.7378 18.0164L8.51953 15.7689Z" fill="#E4751F" stroke="#E4751F" stroke-width="0.0770594" stroke-linecap="round" stroke-linejoin="round"/>
<path d="M20.2145 18.0164L20.1172 20.2444L22.423 15.7689L20.2145 18.0164Z" fill="#E4751F" stroke="#E4751F" stroke-width="0.0770594" stroke-linecap="round" stroke-linejoin="round"/>
<path d="M13.9844 16.0118L13.4688 18.8235L14.1109 22.1412L14.2568 17.7728L13.9844 16.0118Z" fill="#E4751F" stroke="#E4751F" stroke-width="0.0770594" stroke-linecap="round" stroke-linejoin="round"/>
<path d="M16.9697 16.0118L16.707 17.763L16.8238 22.1412L17.4756 18.8235L16.9697 16.0118Z" fill="#E4751F" stroke="#E4751F" stroke-width="0.0770594" stroke-linecap="round" stroke-linejoin="round"/>
<path d="M17.4878 18.8231L16.8359 22.1408L17.3029 22.4619L20.1439 20.2436L20.2412 18.0156L17.4878 18.8231Z" fill="#F6851B" stroke="#F6851B" stroke-width="0.0770594" stroke-linecap="round" stroke-linejoin="round"/>
<path d="M10.7695 18.0156L10.8474 20.2436L13.6883 22.4619L14.1553 22.1408L13.5132 18.8231L10.7695 18.0156Z" fill="#F6851B" stroke="#F6851B" stroke-width="0.0770594" stroke-linecap="round" stroke-linejoin="round"/>
<path d="M17.5443 25.5155L17.5735 24.6108L17.3303 24.3968H13.663L13.4393 24.6108L13.4587 25.5155L10.3945 24.066L11.4646 24.9415L13.6338 26.4493H17.3595L19.5385 24.9415L20.6085 24.066L17.5443 25.5155Z" fill="#C0AD9E" stroke="#C0AD9E" stroke-width="0.0770594" stroke-linecap="round" stroke-linejoin="round"/>
<path d="M17.3058 22.4616L16.8388 22.1405H14.1438L13.6768 22.4616L13.4336 24.6117L13.6574 24.3977H17.3253L17.5685 24.6117L17.3058 22.4616Z" fill="#161616" stroke="#161616" stroke-width="0.0770594" stroke-linecap="round" stroke-linejoin="round"/>
<path d="M27.0751 11.1105L27.902 7.1416L26.6666 3.45483L17.3086 10.4004L20.9078 13.4451L25.9954 14.9334L27.1238 13.6202L26.6374 13.27L27.4156 12.5599L26.8125 12.093L27.5907 11.4996L27.0751 11.1105Z" fill="#763D16" stroke="#763D16" stroke-width="0.0770594" stroke-linecap="round" stroke-linejoin="round"/>
<path d="M3.08594 7.1416L3.91279 11.1105L3.38749 11.4996L4.1657 12.093L3.57232 12.5599L4.35053 13.27L3.86415 13.6202L4.98282 14.9334L10.0704 13.4451L13.6696 10.4004L4.31162 3.45483L3.08594 7.1416Z" fill="#763D16" stroke="#763D16" stroke-width="0.0770594" stroke-linecap="round" stroke-linejoin="round"/>
<path d="M25.983 14.9322L20.8955 13.4439L22.4422 15.7688L20.1367 20.2435L23.1717 20.2046H27.6951L25.983 14.9322Z" fill="#F6851B" stroke="#F6851B" stroke-width="0.0770594" stroke-linecap="round" stroke-linejoin="round"/>
<path d="M10.0731 13.4439L4.98557 14.9322L3.29297 20.2046H7.80658L10.8319 20.2435L8.53615 15.7688L10.0731 13.4439Z" fill="#F6851B" stroke="#F6851B" stroke-width="0.0770594" stroke-linecap="round" stroke-linejoin="round"/>
<path d="M16.9853 16.012L17.3063 10.3992L18.7849 6.40112H12.2188L13.6779 10.3992L14.0184 16.012L14.1351 17.7824L14.1448 22.1404H16.8394L16.8588 17.7824L16.9853 16.012Z" fill="#F6851B" stroke="#F6851B" stroke-width="0.0770594" stroke-linecap="round" stroke-linejoin="round"/>
</svg>
