<svg width="20" height="20" viewBox="0 0 20 20" fill="none" xmlns="http://www.w3.org/2000/svg">
<path d="M9.14453 0.916687C13.6985 0.916687 17.3945 4.61269 17.3945 9.16669C17.3945 13.7207 13.6985 17.4167 9.14453 17.4167C4.59053 17.4167 0.894531 13.7207 0.894531 9.16669C0.894531 4.61269 4.59053 0.916687 9.14453 0.916687ZM9.14453 15.5834C12.6893 15.5834 15.5612 12.7114 15.5612 9.16669C15.5612 5.62102 12.6893 2.75002 9.14453 2.75002C5.59886 2.75002 2.72786 5.62102 2.72786 9.16669C2.72786 12.7114 5.59886 15.5834 9.14453 15.5834ZM16.9224 15.6484L19.5157 18.2408L18.2186 19.5379L15.6263 16.9446L16.9224 15.6484Z" fill="#72809C"/>
</svg>
