<svg width="95" height="98" viewBox="0 0 95 98" fill="none" xmlns="http://www.w3.org/2000/svg">
<path d="M1.3737 48.4154C1.8539 48.5605 2.3559 48.6217 2.85722 48.5971C3.29235 48.6309 3.7303 48.5865 4.14923 48.4661C5.21944 46.0032 5.67357 40.6634 5.50178 35.7679C5.88831 35.9327 6.28614 36.0672 6.6931 36.1714C7.60981 36.3819 8.54909 36.477 9.48907 36.4544H11.7196L16.2011 36.4847C22.2577 36.5452 28.5761 36.5755 34.8638 36.5755C47.4408 36.5755 60.0171 36.4643 71.0104 36.2326L75.0475 36.1418L75.0482 36.1411C75.5348 36.0918 76.0255 36.0918 76.512 36.1411C76.9042 36.2122 77.2823 36.3446 77.6322 36.5347C78.3335 36.9072 78.9045 37.4845 79.2678 38.1907C79.4467 38.5329 79.5727 38.9004 79.641 39.2806C79.6762 39.4778 79.7001 39.6763 79.7121 39.8763V40.724C79.8839 45.0443 80.0754 48.7992 80.2972 51.8775C74.7961 52.0894 70.0724 52.3619 66.6096 52.6949C66.2668 52.6949 66.0041 53.4018 66.0245 54.1784C66.045 54.9558 66.297 55.4402 66.6096 55.4705C71.4545 55.9344 78.722 56.2879 87.2406 56.4801C87.9574 56.4801 87.8462 56.4801 88.0081 56.5709C88.2278 56.6759 88.3798 56.885 88.4115 57.1265V58.2875L88.3003 65.2221V70.8042V70.8035V70.864C88.3024 70.9013 88.3024 70.9379 88.3003 70.9753C88.2517 71.0471 88.1862 71.1062 88.1088 71.1471C88.0722 71.1513 88.0348 71.1513 87.9975 71.1471H84.0307C79.1655 71.1471 74.31 71.1471 69.5969 71.2379H66.963H66.1857H66.185C65.3295 71.2963 64.4705 71.2146 63.6419 70.9957C62.0569 70.4423 60.6819 69.4129 59.7053 68.0477C58.8583 66.7853 58.3978 65.3031 58.3802 63.7831C58.3619 62.263 58.7871 60.771 59.6039 59.4889C60.9522 57.3492 63.1616 55.8988 65.6605 55.5116C65.9429 55.5116 66.1752 54.7948 66.1548 54.0281C66.1344 53.2606 65.8619 52.8269 65.5084 52.8171L65.5092 52.8163C63.9348 52.7734 62.3703 53.0762 60.9262 53.7049C59.1505 54.4681 57.6009 55.6743 56.4242 57.2078C55.756 58.064 55.2096 59.0082 54.7992 60.0135C54.3739 61.0943 54.1021 62.2286 53.9916 63.3847C53.7621 65.9265 54.3563 68.4752 55.6877 70.6522C57.9268 74.2535 61.7972 76.5194 66.0335 76.7088H67.0432H69.6771C73.1391 76.7088 76.7426 76.7793 80.2651 76.7898C79.9117 79.1519 79.6392 82.2704 79.4575 85.8239L79.3766 87.4694V88.277L79.3773 88.2763C79.3618 88.4424 79.335 88.6079 79.297 88.7705C79.1583 89.426 78.8358 90.028 78.3683 90.5068C77.9057 91.0067 77.3045 91.3581 76.6419 91.5165C76.4793 91.5559 76.3138 91.5862 76.1476 91.6073H75.5119H73.5333C63.6718 91.6073 53.8198 92.0917 48.9044 93.0303C48.7327 93.0303 48.6017 93.7168 48.6115 94.4835C48.6214 95.251 48.7425 95.7051 48.9044 95.7354C53.8099 96.6739 63.672 97.1583 73.5333 97.1583H75.3801C75.6223 97.1583 76.1574 97.1583 76.5813 97.1076V97.1083C77.0241 97.0548 77.4628 96.971 77.8937 96.8556C79.5962 96.4071 81.1205 95.4488 82.2647 94.1104C83.6306 92.515 84.3699 90.4774 84.3438 88.377V87.499L84.2628 85.8535C84.0713 82.3106 83.7988 79.1914 83.4552 76.83H88.4014C88.683 76.8061 88.9632 76.7617 89.2392 76.6984C90.9178 76.3013 92.3422 75.1973 93.1455 73.6708C93.4074 73.1744 93.6011 72.6442 93.7208 72.0957C93.7764 71.8226 93.8137 71.5465 93.832 71.2684V65.2724L93.7208 58.3377V56.8845C93.6982 56.6332 93.6616 56.3839 93.6095 56.1375C93.3934 55.163 92.9273 54.2626 92.257 53.5232C91.6057 52.8001 90.7777 52.2573 89.8547 51.9488C89.0759 51.7017 88.2571 51.6053 87.4424 51.6658L83.3341 51.7869C83.5559 48.7586 83.7481 45.0037 83.9093 40.6834V39.8357C83.9325 39.4597 83.9325 39.0816 83.9093 38.7056C83.7819 37.9339 83.5404 37.1855 83.1925 36.485C82.1681 34.096 80.077 32.3308 77.5506 31.7203C76.7487 31.538 75.9298 31.4436 75.1074 31.438H74.8145C74.8145 31.186 74.9053 30.9135 74.9455 30.6403C75.0363 30.065 75.1173 29.449 75.1877 28.8034L75.2884 27.7937V27.279H75.2891C75.3017 27.0608 75.3017 26.8418 75.2891 26.6235C75.2785 24.3641 74.247 22.2307 72.4834 20.819C71.5638 20.0896 70.49 19.5785 69.3438 19.3257C69.0411 19.3257 68.7383 19.2144 68.4355 19.1947C68.1328 19.1743 67.7589 19.1947 67.6075 19.1947L66.4071 19.194C61.4721 19.1053 56.54 19.4637 51.6698 20.2642C48.3992 16.7213 44.7761 12.9761 41.0817 9.23189C40.5607 8.71087 39.8545 8.41797 39.118 8.41797C38.3814 8.41797 37.6753 8.71087 37.1549 9.23189C33.3598 13.0875 29.5945 16.9536 26.2936 20.5368C23.2653 20.315 19.4605 20.1129 15.1402 19.9411L11.6479 19.8101L9.82072 19.7496H8.89204C8.48086 19.7383 8.06967 19.7552 7.6606 19.7996C5.868 20.0052 4.19374 20.7966 2.89669 22.0505C1.53358 23.3812 0.664701 25.1365 0.433806 27.0269C0.321857 28.0197 0.387336 29.0244 0.625317 29.9947C-0.414613 35.5661 -0.151995 44.903 1.37235 48.4158L1.3737 48.4154ZM66.4084 24.695H67.9827H68.265C68.6255 24.7612 68.9684 24.8985 69.2747 25.0992C69.9196 25.516 70.371 26.1736 70.5266 26.9263C70.5597 27.0516 70.5801 27.1798 70.5871 27.3093V27.824L70.6878 28.8337C70.7582 29.48 70.8392 30.0954 70.93 30.6706C70.93 30.9128 71.011 31.155 71.0511 31.3775H70.9807C67.8518 31.3071 64.5912 31.2564 61.2404 31.2057C59.6858 29.1871 57.627 26.8354 55.1838 24.1402C58.9127 24.5246 62.6598 24.7098 66.4082 24.695L66.4084 24.695ZM39.1551 15.156C45.3525 21.3442 51.5294 27.1382 56.3039 31.1451C49.3693 31.0641 42.173 31.0339 34.9159 31.0339H22.0663C26.7704 27.067 32.9373 21.2633 39.125 15.1461L39.1551 15.156ZM6.10697 25.3012C6.64279 24.7189 7.35038 24.3232 8.12627 24.1704C8.33891 24.1303 8.55506 24.107 8.77191 24.1H9.70059L11.5278 24.0395L15.02 23.9085C18.1392 23.7874 20.9752 23.6459 23.4683 23.4945C20.8238 26.4017 18.5629 29.016 16.8775 31.1353H16.2008L11.6685 31.186H9.43799V31.1853C8.90922 31.2268 8.37694 31.2029 7.85379 31.1149C7.04198 30.9346 6.32381 30.4643 5.83449 29.7926C5.34797 29.1202 5.10859 28.3 5.15857 27.4712C5.22898 26.6636 5.56201 25.9011 6.10697 25.3012V25.3012Z" fill="url(#paint0_linear_1383_14847)"/>
<path d="M69.618 64.1115C69.618 65.7731 68.2711 67.12 66.6095 67.12C64.9486 67.12 63.6016 65.773 63.6016 64.1115C63.6016 62.4505 64.9485 61.1035 66.6095 61.1035C68.2712 61.1035 69.618 62.4504 69.618 64.1115Z" fill="url(#paint1_linear_1383_14847)"/>
<path d="M2.87888 82.3212C3.81742 82.8155 5.09951 83.3309 6.43171 84.0166C7.85467 84.7778 9.1628 85.736 10.3182 86.8633C11.4482 88.0172 12.4099 89.3261 13.1747 90.7492C13.8915 92.0813 14.366 93.3635 14.8505 94.2921H14.8498C15.3398 94.4012 15.8432 94.4386 16.3438 94.4034C16.7761 94.44 17.212 94.3921 17.626 94.2618C18.1667 92.5988 18.2153 90.8146 17.7668 89.1241C17.1916 86.778 15.9819 84.6356 14.2716 82.9303C12.5607 81.225 10.4147 80.0224 8.0672 79.4542C6.3781 79.0107 4.59674 79.0663 2.93938 79.6162C2.8063 80.0844 2.76194 80.5744 2.80842 81.0596C2.76758 81.4813 2.79152 81.9066 2.87882 82.3213L2.87888 82.3212Z" fill="url(#paint2_linear_1383_14847)"/>
<path d="M2.97612 70.804C5.45667 71.3968 7.88639 72.1833 10.2437 73.1556C13.2916 74.5004 16.0721 76.3846 18.4497 78.7179C20.7796 81.1061 22.6567 83.8963 23.9916 86.9542C24.947 89.3023 25.7159 91.7223 26.2926 94.1915C26.2926 94.3224 27.0094 94.4238 27.7867 94.4133C28.564 94.4034 29.0385 94.302 29.0583 94.171C29.5758 91.2195 29.3962 88.1885 28.5337 85.3186C27.3734 81.3503 25.2401 77.7349 22.3258 74.8009C19.3877 71.8922 15.7687 69.7652 11.7984 68.6134C8.92778 67.7565 5.89604 67.5833 2.94595 68.1086C2.80443 68.1086 2.69389 68.7852 2.70373 69.5519C2.7143 70.3194 2.86567 70.8038 2.97621 70.8038L2.97612 70.804Z" fill="url(#paint3_linear_1383_14847)"/>
<path d="M30.5237 66.6462C26.3603 62.533 21.2671 59.4829 15.6759 57.7536C11.607 56.4778 7.31335 56.0786 3.079 56.5827C2.87693 56.5827 2.7157 57.2593 2.73612 58.0162C2.75654 58.7731 2.8875 59.2476 3.0593 59.2779L3.0586 59.2772C6.81764 59.9039 10.5015 60.9192 14.0507 62.3055C18.7265 64.2221 22.987 67.0258 26.5968 70.5624C30.1319 74.1659 32.9357 78.4194 34.8537 83.0888C36.2421 86.6346 37.2567 90.3149 37.882 94.0712C37.882 94.2627 38.6086 94.4141 39.3859 94.4043C40.1632 94.3944 40.6378 94.243 40.6575 94.0508H40.6582C41.1335 89.8179 40.7103 85.532 39.4162 81.4738C37.6842 75.8898 34.6341 70.8041 30.5236 66.6464L30.5237 66.6462Z" fill="url(#paint4_linear_1383_14847)"/>
<path d="M87.042 5.71875C84.2969 5.79972 80.0371 10.0391 79.9766 12.7842C80.2835 13.1743 80.6208 13.5383 80.9862 13.8742C81.2777 14.1896 81.5953 14.4804 81.9346 14.7423C84.6601 14.6515 88.9093 10.382 89.0001 7.67682H89.0008C88.6938 7.29309 88.3559 6.93541 87.9911 6.60661C87.7018 6.28343 87.3842 5.98631 87.042 5.71875H87.042Z" fill="url(#paint5_linear_1383_14847)"/>
<path d="M85.1932 25.1696C85.1785 25.6012 85.1982 26.0335 85.2538 26.4616C87.1815 28.3287 93.0058 28.3084 94.9336 26.4616C94.9913 25.9793 95.0117 25.4934 94.9941 25.0083C95.0103 24.5767 94.9899 24.1444 94.9336 23.7163C93.0058 21.8286 87.1815 21.8189 85.2538 23.7163C85.1968 24.1986 85.1763 24.6844 85.1932 25.1696Z" fill="url(#paint6_linear_1383_14847)"/>
<path d="M70.0382 9.8074C70.4698 9.82218 70.9021 9.80176 71.3302 9.74684C73.1974 7.81911 73.177 1.99481 71.3302 0.0670786C70.8479 0.00863919 70.3621 -0.0110743 69.877 0.00582375C69.4588 -0.00755376 69.0398 0.0128647 68.6251 0.0670786C66.6768 1.99481 66.6768 7.81911 68.5646 9.74684C69.0539 9.80458 69.5461 9.825 70.0382 9.8074H70.0382Z" fill="url(#paint7_linear_1383_14847)"/>
<defs>
<linearGradient id="paint0_linear_1383_14847" x1="-7.90169" y1="88.7932" x2="120.587" y2="141.88" gradientUnits="userSpaceOnUse">
<stop stop-color="#00B7E9"/>
<stop offset="0.9999" stop-color="#C91CC3"/>
</linearGradient>
<linearGradient id="paint1_linear_1383_14847" x1="63.0949" y1="66.5528" x2="71.4624" y2="69.8223" gradientUnits="userSpaceOnUse">
<stop stop-color="#00B7E9"/>
<stop offset="0.9999" stop-color="#C91CC3"/>
</linearGradient>
<linearGradient id="paint2_linear_1383_14847" x1="1.50218" y1="92.9779" x2="22.7466" y2="101.292" gradientUnits="userSpaceOnUse">
<stop stop-color="#00B7E9"/>
<stop offset="0.9999" stop-color="#C91CC3"/>
</linearGradient>
<linearGradient id="paint3_linear_1383_14847" x1="0.459405" y1="91.9063" x2="37.4996" y2="106.402" gradientUnits="userSpaceOnUse">
<stop stop-color="#00B7E9"/>
<stop offset="0.9999" stop-color="#C91CC3"/>
</linearGradient>
<linearGradient id="paint4_linear_1383_14847" x1="-0.475153" y1="90.8195" x2="52.5016" y2="111.563" gradientUnits="userSpaceOnUse">
<stop stop-color="#00B7E9"/>
<stop offset="0.9999" stop-color="#C91CC3"/>
</linearGradient>
<linearGradient id="paint5_linear_1383_14847" x1="79.2166" y1="13.8917" x2="91.767" y2="18.796" gradientUnits="userSpaceOnUse">
<stop stop-color="#00B7E9"/>
<stop offset="0.9999" stop-color="#C91CC3"/>
</linearGradient>
<linearGradient id="paint6_linear_1383_14847" x1="84.3612" y1="27.3304" x2="95.0189" y2="34.6835" gradientUnits="userSpaceOnUse">
<stop stop-color="#00B7E9"/>
<stop offset="0.9999" stop-color="#C91CC3"/>
</linearGradient>
<linearGradient id="paint7_linear_1383_14847" x1="66.6875" y1="8.88845" x2="75.1936" y2="10.7738" gradientUnits="userSpaceOnUse">
<stop stop-color="#00B7E9"/>
<stop offset="0.9999" stop-color="#C91CC3"/>
</linearGradient>
</defs>
</svg>
