<svg width="28" height="23" viewBox="0 0 28 23" fill="none" xmlns="http://www.w3.org/2000/svg">
<path d="M27.4439 2.64862C26.4162 3.10323 25.3263 3.4018 24.2103 3.53443C25.3866 2.83094 26.2669 1.72379 26.6873 0.41928C25.5834 1.07624 24.3732 1.53664 23.1118 1.78569C22.2645 0.879121 21.1414 0.277878 19.9171 0.0754352C18.6929 -0.127007 17.436 0.0806939 16.342 0.666249C15.248 1.2518 14.378 2.1824 13.8674 3.31338C13.3569 4.44435 13.2342 5.71232 13.5186 6.92018C11.28 6.80798 9.09 6.22623 7.0908 5.21272C5.0916 4.1992 3.3279 2.77658 1.91419 1.0372C1.41379 1.89669 1.15083 2.87375 1.15223 3.8683C1.15223 5.82032 2.14574 7.54483 3.6562 8.55449C2.76232 8.52635 1.88812 8.28495 1.10646 7.85042V7.92042C1.10673 9.22047 1.5566 10.4804 2.37978 11.4866C3.20297 12.4929 4.34881 13.1834 5.62303 13.4413C4.79324 13.6661 3.92317 13.6993 3.07867 13.5382C3.43794 14.6572 4.13816 15.6359 5.0813 16.3371C6.02444 17.0384 7.16328 17.4272 8.33836 17.449C7.17049 18.3662 5.83328 19.0442 4.40319 19.4443C2.97311 19.8444 1.47819 19.9587 0.00390625 19.7806C2.57747 21.4357 5.57335 22.3144 8.63318 22.3115C18.9897 22.3115 24.6532 13.7321 24.6532 6.29149C24.6532 6.04918 24.6465 5.80416 24.6357 5.56454C25.7381 4.7678 26.6895 3.78082 27.4453 2.64997L27.4439 2.64862Z" fill="#5A6781"/>
</svg>
