<svg width="24" height="17" viewBox="0 0 24 17" fill="none" xmlns="http://www.w3.org/2000/svg">
<g clip-path="url(#clip0_1370_14660)">
<path d="M4.91641 3.31988C8.82972 -1.10899 15.1765 -1.10899 19.0898 3.31988L19.5604 3.84934C19.7585 4.07115 19.7585 4.42889 19.5604 4.65069L17.9505 6.47518C17.8514 6.58251 17.6966 6.58251 17.5975 6.47518L16.9474 5.73823C14.2167 2.64732 9.78947 2.64732 7.05882 5.73823L6.36533 6.52527C6.26625 6.63259 6.11146 6.63259 6.01238 6.52527L4.39629 4.70793C4.19814 4.48613 4.19814 4.12838 4.39629 3.90658L4.91641 3.31988ZM22.4211 7.0905L23.8576 8.71466C24.0557 8.93646 24.0557 9.29421 23.8576 9.51601L17.387 16.8355C17.1889 17.0573 16.8731 17.0573 16.6811 16.8355L12.0929 11.641C12.0433 11.5838 11.9628 11.5838 11.9133 11.641L7.32508 16.8355C7.12694 17.0573 6.81115 17.0573 6.6192 16.8355L0.148607 9.51601C-0.0495356 9.29421 -0.0495356 8.93646 0.148607 8.71466L1.58514 7.0905C1.78328 6.8687 2.09907 6.8687 2.29102 7.0905L6.87926 12.2849C6.92879 12.3422 7.00929 12.3422 7.05882 12.2849L11.6471 7.0905C11.8452 6.8687 12.161 6.8687 12.3529 7.0905L16.9412 12.2849C16.9907 12.3422 17.0712 12.3422 17.1207 12.2849L21.709 7.0905C21.9071 6.8687 22.2229 6.8687 22.4211 7.0905Z" fill="#3B99FC"/>
</g>
<defs>
<clipPath id="clip0_1370_14660">
<rect width="24" height="17" fill="white"/>
</clipPath>
</defs>
</svg>
