<svg width="14" height="14" viewBox="0 0 14 14" fill="none" xmlns="http://www.w3.org/2000/svg">
<path d="M0 7.7085H3.85297C3.97335 9.95223 4.68347 12.1235 5.91066 14C4.3735 13.7568 2.95969 13.0075 1.89027 11.8692C0.820849 10.7308 0.156115 9.2677 0 7.7085ZM0 6.2915C0.156115 4.7323 0.820849 3.26915 1.89027 2.13083C2.95969 0.992504 4.3735 0.243174 5.91066 0C4.68347 1.87655 3.97335 4.04778 3.85297 6.2915H0ZM13.9993 6.2915H10.1463C10.0259 4.04778 9.31583 1.87655 8.08864 0C9.62579 0.243174 11.0396 0.992504 12.109 2.13083C13.1784 3.26915 13.8432 4.7323 13.9993 6.2915ZM13.9993 7.7085C13.8432 9.2677 13.1784 10.7308 12.109 11.8692C11.0396 13.0075 9.62579 13.7568 8.08864 14C9.31583 12.1235 10.0259 9.95223 10.1463 7.7085H14H13.9993ZM5.26205 7.7085H8.73725C8.62146 9.62109 8.02343 11.4724 6.99965 13.0875C5.97587 11.4724 5.37784 9.62109 5.26205 7.7085ZM5.26205 6.2915C5.37784 4.37891 5.97587 2.52763 6.99965 0.912551C8.02343 2.52763 8.62146 4.37891 8.73725 6.2915H5.26205Z" fill="#D7D7D7"/>
</svg>
