<svg width="23" height="23" viewBox="0 0 23 23" fill="none" xmlns="http://www.w3.org/2000/svg">
<path fill-rule="evenodd" clip-rule="evenodd" d="M10.5062 7.1875H10.5872C10.8334 7.1875 11.0395 7.37404 11.064 7.61899L11.5 11.9792L14.6128 13.7579C14.7621 13.8432 14.8542 14.002 14.8542 14.1739V14.375C14.8542 14.5771 14.6903 14.741 14.4882 14.741C14.4557 14.741 14.4233 14.7366 14.3919 14.7281L9.96541 13.5209C9.74367 13.4604 9.5961 13.251 9.61373 13.0218L10.0285 7.62992C10.0477 7.38027 10.2559 7.1875 10.5062 7.1875Z" fill="#B0B7C3"/>
<path opacity="0.3" fill-rule="evenodd" clip-rule="evenodd" d="M7.08193 2.71684C8.2917 2.20171 9.623 1.91667 11.0209 1.91667C16.5782 1.91667 21.0834 6.4218 21.0834 11.9792C21.0834 17.5365 16.5782 22.0417 11.0209 22.0417C5.46351 22.0417 0.958374 17.5365 0.958374 11.9792C0.958374 11.0353 1.08832 10.1219 1.33129 9.25564L3.17673 9.77329C2.97731 10.4842 2.87504 11.2239 2.87504 11.9792C2.87504 16.478 6.52205 20.125 11.0209 20.125C15.5197 20.125 19.1667 16.478 19.1667 11.9792C19.1667 7.48035 15.5197 3.83333 11.0209 3.83333C10.1093 3.83333 9.22147 3.98276 8.38423 4.26886L9.52538 5.62883C9.59181 5.708 9.63087 5.80653 9.63671 5.90972C9.65169 6.17393 9.44964 6.40025 9.18542 6.41523L4.52125 6.67954C4.4748 6.68217 4.42821 6.67802 4.38296 6.66723C4.12555 6.60583 3.96664 6.34738 4.02804 6.08996L5.10953 1.55596C5.13339 1.45591 5.18882 1.36619 5.26762 1.30007C5.47034 1.12997 5.77258 1.15641 5.94268 1.35913L7.08193 2.71684Z" fill="#B0B7C3"/>
</svg>
