<svg width="28" height="28" viewBox="0 0 28 28" fill="none" xmlns="http://www.w3.org/2000/svg">
<path opacity="0.3" d="M8.1665 4.66666H5.83317C5.18884 4.66666 4.6665 5.189 4.6665 5.83333V8.16666C4.6665 8.811 5.18884 9.33333 5.83317 9.33333H8.1665C8.81084 9.33333 9.33317 8.811 9.33317 8.16666V5.83333C9.33317 5.189 8.81084 4.66666 8.1665 4.66666Z" fill="#B0B7C3"/>
<path fill-rule="evenodd" clip-rule="evenodd" d="M5.83317 11.6667H8.1665C8.81084 11.6667 9.33317 12.189 9.33317 12.8333V15.1667C9.33317 15.811 8.81084 16.3333 8.1665 16.3333H5.83317C5.18884 16.3333 4.6665 15.811 4.6665 15.1667V12.8333C4.6665 12.189 5.18884 11.6667 5.83317 11.6667ZM12.8332 4.66666H15.1665C15.8108 4.66666 16.3332 5.189 16.3332 5.83333V8.16666C16.3332 8.811 15.8108 9.33333 15.1665 9.33333H12.8332C12.1888 9.33333 11.6665 8.811 11.6665 8.16666V5.83333C11.6665 5.189 12.1888 4.66666 12.8332 4.66666ZM12.8332 11.6667H15.1665C15.8108 11.6667 16.3332 12.189 16.3332 12.8333V15.1667C16.3332 15.811 15.8108 16.3333 15.1665 16.3333H12.8332C12.1888 16.3333 11.6665 15.811 11.6665 15.1667V12.8333C11.6665 12.189 12.1888 11.6667 12.8332 11.6667ZM19.8332 4.66666H22.1665C22.8108 4.66666 23.3332 5.189 23.3332 5.83333V8.16666C23.3332 8.811 22.8108 9.33333 22.1665 9.33333H19.8332C19.1888 9.33333 18.6665 8.811 18.6665 8.16666V5.83333C18.6665 5.189 19.1888 4.66666 19.8332 4.66666ZM19.8332 11.6667H22.1665C22.8108 11.6667 23.3332 12.189 23.3332 12.8333V15.1667C23.3332 15.811 22.8108 16.3333 22.1665 16.3333H19.8332C19.1888 16.3333 18.6665 15.811 18.6665 15.1667V12.8333C18.6665 12.189 19.1888 11.6667 19.8332 11.6667ZM5.83317 18.6667H8.1665C8.81084 18.6667 9.33317 19.189 9.33317 19.8333V22.1667C9.33317 22.811 8.81084 23.3333 8.1665 23.3333H5.83317C5.18884 23.3333 4.6665 22.811 4.6665 22.1667V19.8333C4.6665 19.189 5.18884 18.6667 5.83317 18.6667ZM12.8332 18.6667H15.1665C15.8108 18.6667 16.3332 19.189 16.3332 19.8333V22.1667C16.3332 22.811 15.8108 23.3333 15.1665 23.3333H12.8332C12.1888 23.3333 11.6665 22.811 11.6665 22.1667V19.8333C11.6665 19.189 12.1888 18.6667 12.8332 18.6667ZM19.8332 18.6667H22.1665C22.8108 18.6667 23.3332 19.189 23.3332 19.8333V22.1667C23.3332 22.811 22.8108 23.3333 22.1665 23.3333H19.8332C19.1888 23.3333 18.6665 22.811 18.6665 22.1667V19.8333C18.6665 19.189 19.1888 18.6667 19.8332 18.6667Z" fill="#B0B7C3"/>
</svg>
