<svg width="17" height="16" viewBox="0 0 17 16" fill="none" xmlns="http://www.w3.org/2000/svg">
<path d="M8.49949 1.58544C10.3591 -0.0841827 13.2329 -0.0287659 15.0244 1.76594C16.8152 3.56144 16.8769 6.42094 15.2112 8.28611L8.49791 15.0089L1.78616 8.28611C0.120494 6.42094 0.183036 3.55669 1.97299 1.76594C3.76612 -0.0263909 6.63433 -0.0865577 8.49949 1.58544ZM13.9034 2.88457C12.7159 1.69548 10.8001 1.64719 9.55716 2.76344L8.50029 3.71186L7.44262 2.76423C6.19574 1.6464 4.28387 1.69548 3.0932 2.88615C1.91362 4.06573 1.85424 5.95386 2.9412 7.20153L8.4987 12.7677L14.0562 7.20232C15.144 5.95386 15.0846 4.06811 13.9034 2.88457Z" fill="white"/>
</svg>
