<svg width="21" height="21" viewBox="0 0 21 21" fill="none" xmlns="http://www.w3.org/2000/svg">
<path d="M9.00391 0C13.9719 0 18.0039 4.032 18.0039 9C18.0039 13.968 13.9719 18 9.00391 18C4.03591 18 0.00390625 13.968 0.00390625 9C0.00390625 4.032 4.03591 0 9.00391 0ZM9.00391 16C12.8709 16 16.0039 12.867 16.0039 9C16.0039 5.132 12.8709 2 9.00391 2C5.13591 2 2.00391 5.132 2.00391 9C2.00391 12.867 5.13591 16 9.00391 16ZM17.4889 16.071L20.3179 18.899L18.9029 20.314L16.0749 17.485L17.4889 16.071Z" fill="#72809C"/>
</svg>
