<svg width="16" height="17" viewBox="0 0 16 17" fill="none" xmlns="http://www.w3.org/2000/svg">
<path d="M9.38553 12.4766L6.06132 10.6636C5.62732 11.1276 5.06381 11.4503 4.444 11.5898C3.8242 11.7293 3.17676 11.6791 2.58584 11.4458C1.99492 11.2125 1.48783 10.8069 1.13048 10.2816C0.773125 9.75634 0.582031 9.13572 0.582031 8.50041C0.582031 7.86511 0.773125 7.24449 1.13048 6.71921C1.48783 6.19393 1.99492 5.78828 2.58584 5.55499C3.17676 5.32169 3.8242 5.27153 4.444 5.41102C5.06381 5.55052 5.62732 5.87322 6.06132 6.33718L9.38632 4.52427C9.19755 3.77699 9.2878 2.98653 9.64015 2.30103C9.99251 1.61554 10.5828 1.08209 11.3003 0.800666C12.0178 0.519244 12.8134 0.509177 13.5378 0.77235C14.2622 1.03552 14.8658 1.55387 15.2354 2.23023C15.605 2.90658 15.7152 3.69451 15.5454 4.44633C15.3756 5.19814 14.9374 5.86221 14.313 6.31408C13.6886 6.76594 12.9209 6.97456 12.1537 6.90085C11.3865 6.82713 10.6725 6.47613 10.1455 5.91364L6.82053 7.72656C6.94815 8.2343 6.94815 8.76573 6.82053 9.27348L10.1447 11.0864C10.6717 10.5239 11.3857 10.1729 12.1529 10.0992C12.9201 10.0255 13.6879 10.2341 14.3123 10.686C14.9367 11.1378 15.3748 11.8019 15.5446 12.5537C15.7144 13.3055 15.6042 14.0935 15.2346 14.7698C14.865 15.4462 14.2614 15.9645 13.537 16.2277C12.8126 16.4909 12.017 16.4808 11.2995 16.1994C10.582 15.9179 9.99172 15.3845 9.63936 14.699C9.28701 14.0135 9.19676 13.223 9.38553 12.4758V12.4766ZM3.74886 10.0834C4.16879 10.0834 4.57151 9.91654 4.86845 9.6196C5.16538 9.32267 5.33219 8.91994 5.33219 8.50002C5.33219 8.08009 5.16538 7.67737 4.86845 7.38043C4.57151 7.0835 4.16879 6.91668 3.74886 6.91668C3.32893 6.91668 2.92621 7.0835 2.62928 7.38043C2.33234 7.67737 2.16553 8.08009 2.16553 8.50002C2.16553 8.91994 2.33234 9.32267 2.62928 9.6196C2.92621 9.91654 3.32893 10.0834 3.74886 10.0834ZM12.4572 5.33335C12.8771 5.33335 13.2798 5.16654 13.5768 4.8696C13.8737 4.57267 14.0405 4.16994 14.0405 3.75002C14.0405 3.33009 13.8737 2.92737 13.5768 2.63043C13.2798 2.3335 12.8771 2.16669 12.4572 2.16669C12.0373 2.16669 11.6345 2.3335 11.3376 2.63043C11.0407 2.92737 10.8739 3.33009 10.8739 3.75002C10.8739 4.16994 11.0407 4.57267 11.3376 4.8696C11.6345 5.16654 12.0373 5.33335 12.4572 5.33335ZM12.4572 14.8334C12.8771 14.8334 13.2798 14.6665 13.5768 14.3696C13.8737 14.0727 14.0405 13.6699 14.0405 13.25C14.0405 12.8301 13.8737 12.4274 13.5768 12.1304C13.2798 11.8335 12.8771 11.6667 12.4572 11.6667C12.0373 11.6667 11.6345 11.8335 11.3376 12.1304C11.0407 12.4274 10.8739 12.8301 10.8739 13.25C10.8739 13.6699 11.0407 14.0727 11.3376 14.3696C11.6345 14.6665 12.0373 14.8334 12.4572 14.8334Z" fill="white"/>
</svg>
