<svg width="13" height="13" viewBox="0 0 13 13" fill="none" xmlns="http://www.w3.org/2000/svg">
<path d="M6.5 0L7.62168 1.22289L9.14379 0.561954L9.6711 2.13535L11.3304 2.15065L11.1722 3.8025L12.6819 4.49139L11.8654 5.93607L12.9644 7.17943L11.6309 8.16715L12.1292 9.75L10.5093 10.11L10.3206 11.7586L8.69434 11.4286L7.85143 12.858L6.5 11.895L5.14857 12.858L4.30566 11.4286L2.6794 11.7586L2.49073 10.11L0.870835 9.75L1.36905 8.16715L0.0356078 7.17943L1.13455 5.93607L0.318133 4.49139L1.82779 3.8025L1.66956 2.15065L3.3289 2.13535L3.85621 0.561954L5.37832 1.22289L6.5 0Z" fill="#438EFF"/>
<path d="M5 7L6 8L8 5" stroke="white" stroke-linecap="round" stroke-linejoin="round"/>
</svg>
