<svg width="16" height="12" viewBox="0 0 16 12" fill="none" xmlns="http://www.w3.org/2000/svg">
<path d="M14.0345 4.40367V2.68966C14.0339 2.24171 13.8557 1.81228 13.539 1.49548C13.2222 1.17879 12.7928 1.00055 12.3448 1H2.68966C2.24171 1.00054 1.81228 1.17877 1.49548 1.49548C1.17879 1.81228 1.00055 2.24171 1 2.68966V9.44828C1.00054 9.89622 1.17877 10.3257 1.49548 10.6425C1.81228 10.9591 2.24171 11.1374 2.68966 11.1379H12.3448C12.7928 11.1374 13.2222 10.9592 13.539 10.6425C13.8557 10.3257 14.0339 9.89622 14.0345 9.44828V7.73426C14.3069 7.67823 14.5516 7.53006 14.7275 7.31465C14.9033 7.09924 14.9996 6.82985 15 6.55173V5.58621C14.9996 5.30808 14.9033 5.03868 14.7275 4.82328C14.5516 4.60789 14.3069 4.4597 14.0345 4.40367ZM13.5517 9.44836C13.5514 9.7683 13.424 10.0751 13.1979 10.3014C12.9716 10.5276 12.6648 10.6549 12.3448 10.6553H2.68966C2.36971 10.6549 2.06292 10.5276 1.83663 10.3014C1.61045 10.0751 1.48309 9.7683 1.48276 9.44836V2.68974C1.48308 2.36979 1.61045 2.06301 1.83663 1.83672C2.06293 1.61053 2.36971 1.48317 2.68966 1.48284H12.3448C12.6648 1.48316 12.9716 1.61054 13.1979 1.83672C13.424 2.06301 13.5514 2.36979 13.5517 2.68974V4.37939H11.8621C11.2584 4.37939 10.7006 4.70149 10.3988 5.22422C10.097 5.74695 10.097 6.39115 10.3988 6.91388C10.7006 7.43661 11.2584 7.7587 11.8621 7.7587H13.5517V9.44836ZM14.5172 6.55181C14.517 6.74383 14.4406 6.92789 14.305 7.06367C14.1692 7.19934 13.9851 7.27574 13.7931 7.27595H11.8621C11.4309 7.27595 11.0324 7.04589 10.8169 6.67251C10.6013 6.29913 10.6013 5.83899 10.8169 5.46561C11.0324 5.09223 11.4309 4.86216 11.8621 4.86216H13.7931C13.9851 4.86238 14.1692 4.93878 14.305 5.07445C14.4406 5.21022 14.517 5.39428 14.5172 5.58631V6.55181Z" fill="white" stroke="#A8B0BF" stroke-width="0.875"/>
</svg>
