<svg width="13" height="13" viewBox="0 0 13 13" fill="none" xmlns="http://www.w3.org/2000/svg">
<path d="M12.875 12.1667C12.875 12.3545 12.8004 12.5347 12.6675 12.6675C12.5347 12.8004 12.3545 12.875 12.1667 12.875H0.833333C0.645472 12.875 0.465304 12.8004 0.332466 12.6675C0.199628 12.5347 0.125 12.3545 0.125 12.1667V0.833333C0.125 0.645472 0.199628 0.465304 0.332466 0.332466C0.465304 0.199628 0.645472 0.125 0.833333 0.125H12.1667C12.3545 0.125 12.5347 0.199628 12.6675 0.332466C12.8004 0.465304 12.875 0.645472 12.875 0.833333V12.1667ZM5.79167 1.54167H1.54167V11.4583H5.79167V1.54167ZM11.4583 7.20833H7.20833V11.4583H11.4583V7.20833ZM11.4583 1.54167H7.20833V5.79167H11.4583V1.54167Z" fill="#A8B0BF"/>
</svg>
