<svg width="12" height="15" viewBox="0 0 12 15" fill="none" xmlns="http://www.w3.org/2000/svg">
<path d="M0.667969 14.6667C0.667969 13.2522 1.22987 11.8956 2.23007 10.8954C3.23026 9.89523 4.58681 9.33332 6.0013 9.33332C7.41579 9.33332 8.77234 9.89523 9.77254 10.8954C10.7727 11.8956 11.3346 13.2522 11.3346 14.6667H10.0013C10.0013 13.6058 9.57988 12.5884 8.82973 11.8382C8.07958 11.0881 7.06217 10.6667 6.0013 10.6667C4.94044 10.6667 3.92302 11.0881 3.17288 11.8382C2.42273 12.5884 2.0013 13.6058 2.0013 14.6667H0.667969ZM6.0013 8.66666C3.7913 8.66666 2.0013 6.87666 2.0013 4.66666C2.0013 2.45666 3.7913 0.666656 6.0013 0.666656C8.2113 0.666656 10.0013 2.45666 10.0013 4.66666C10.0013 6.87666 8.2113 8.66666 6.0013 8.66666ZM6.0013 7.33332C7.47464 7.33332 8.66797 6.13999 8.66797 4.66666C8.66797 3.19332 7.47464 1.99999 6.0013 1.99999C4.52797 1.99999 3.33464 3.19332 3.33464 4.66666C3.33464 6.13999 4.52797 7.33332 6.0013 7.33332Z" fill="#A8B0BF"/>
</svg>
