<svg width="24" height="24" viewBox="0 0 24 24" fill="none" xmlns="http://www.w3.org/2000/svg">
<g clip-path="url(#clip0_7689_11494)">
<path d="M3 22C3 20.0803 3.76258 18.2393 5.11999 16.8819C6.47739 15.5245 8.31843 14.7619 10.2381 14.7619C12.1578 14.7619 13.9988 15.5245 15.3562 16.8819C16.7136 18.2393 17.4762 20.0803 17.4762 22H3ZM10.2381 13.8571C7.23881 13.8571 4.80952 11.4279 4.80952 8.42857C4.80952 5.42929 7.23881 3 10.2381 3C13.2374 3 15.6667 5.42929 15.6667 8.42857C15.6667 11.4279 13.2374 13.8571 10.2381 13.8571ZM16.8999 15.8775C18.2838 16.2332 19.5203 17.0164 20.4332 18.1157C21.3462 19.215 21.8891 20.5743 21.9846 22H19.2857C19.2857 19.6386 18.3809 17.4889 16.8999 15.8775ZM15.0695 13.8182C15.8277 13.1401 16.434 12.3094 16.8488 11.3806C17.2635 10.4518 17.4773 9.44578 17.4762 8.42857C17.4781 7.19218 17.1619 5.9761 16.5579 4.89729C17.5826 5.1032 18.5045 5.65762 19.1667 6.46632C19.8289 7.27502 20.1907 8.28809 20.1905 9.33333C20.1907 9.97794 20.0532 10.6152 19.787 11.2023C19.5209 11.7894 19.1324 12.3128 18.6475 12.7375C18.1625 13.1622 17.5924 13.4784 16.9753 13.6648C16.3583 13.8511 15.7085 13.9035 15.0695 13.8182Z" fill="white"/>
</g>
<defs>
<clipPath id="clip0_7689_11494">
<rect width="24" height="24" fill="white"/>
</clipPath>
</defs>
</svg>
